<mxfile host="65bd71144e">
    <diagram id="vHqvK5vs0kynqoMWuBdA" name="PÃ¡gina-1">
        <mxGraphModel dx="801" dy="610" grid="1" gridSize="10" guides="1" tooltips="1" connect="1" arrows="1" fold="1" page="1" pageScale="1" pageWidth="127700" pageHeight="167700" math="0" shadow="0">
            <root>
                <mxCell id="0"/>
                <mxCell id="1" parent="0"/>
                <mxCell id="4" value="" style="edgeStyle=none;html=1;" edge="1" parent="1" source="2" target="3">
                    <mxGeometry relative="1" as="geometry"/>
                </mxCell>
                <mxCell id="2" value="INICIO" style="ellipse;whiteSpace=wrap;html=1;fillColor=#1ba1e2;fontColor=#ffffff;strokeColor=#006EAF;" vertex="1" parent="1">
                    <mxGeometry x="420" width="120" height="70" as="geometry"/>
                </mxCell>
                <mxCell id="5" style="edgeStyle=none;html=1;" edge="1" parent="1" source="3" target="6">
                    <mxGeometry relative="1" as="geometry">
                        <mxPoint x="480" y="250" as="targetPoint"/>
                    </mxGeometry>
                </mxCell>
                <mxCell id="3" value="A=0&lt;br&gt;B=1&lt;br&gt;C=A+B" style="whiteSpace=wrap;html=1;fillColor=#60a917;fontColor=#ffffff;strokeColor=#2D7600;" vertex="1" parent="1">
                    <mxGeometry x="420" y="120" width="120" height="75" as="geometry"/>
                </mxCell>
                <mxCell id="7" style="edgeStyle=none;html=1;" edge="1" parent="1" source="6" target="8">
                    <mxGeometry relative="1" as="geometry">
                        <mxPoint x="480" y="370" as="targetPoint"/>
                    </mxGeometry>
                </mxCell>
                <mxCell id="13" style="edgeStyle=none;html=1;" edge="1" parent="1" source="6" target="14">
                    <mxGeometry relative="1" as="geometry">
                        <mxPoint x="640" y="340" as="targetPoint"/>
                        <Array as="points">
                            <mxPoint x="640" y="280"/>
                        </Array>
                    </mxGeometry>
                </mxCell>
                <mxCell id="6" value="1000&amp;gt;C" style="rhombus;whiteSpace=wrap;html=1;fillColor=#a20025;fontColor=#ffffff;strokeColor=#6F0000;" vertex="1" parent="1">
                    <mxGeometry x="440" y="240" width="80" height="80" as="geometry"/>
                </mxCell>
                <mxCell id="10" style="edgeStyle=none;html=1;" edge="1" parent="1" source="8" target="11">
                    <mxGeometry relative="1" as="geometry">
                        <mxPoint x="480" y="460" as="targetPoint"/>
                    </mxGeometry>
                </mxCell>
                <mxCell id="8" value="C=A+B&lt;br&gt;A=B&lt;br&gt;B=C" style="rounded=0;whiteSpace=wrap;html=1;fillColor=#fa6800;fontColor=#000000;strokeColor=#C73500;" vertex="1" parent="1">
                    <mxGeometry x="420" y="350" width="120" height="70" as="geometry"/>
                </mxCell>
                <mxCell id="12" style="edgeStyle=none;html=1;" edge="1" parent="1" source="11">
                    <mxGeometry relative="1" as="geometry">
                        <mxPoint x="480" y="240" as="targetPoint"/>
                        <Array as="points">
                            <mxPoint x="490" y="570"/>
                            <mxPoint x="360" y="570"/>
                            <mxPoint x="360" y="240"/>
                        </Array>
                    </mxGeometry>
                </mxCell>
                <mxCell id="11" value="C" style="shape=document;whiteSpace=wrap;html=1;boundedLbl=1;fillColor=#647687;fontColor=#ffffff;strokeColor=#314354;" vertex="1" parent="1">
                    <mxGeometry x="430" y="460" width="120" height="70" as="geometry"/>
                </mxCell>
                <mxCell id="14" value="FI N" style="ellipse;whiteSpace=wrap;html=1;fillColor=#1ba1e2;fontColor=#ffffff;strokeColor=#006EAF;" vertex="1" parent="1">
                    <mxGeometry x="580" y="320" width="120" height="70" as="geometry"/>
                </mxCell>
            </root>
        </mxGraphModel>
    </diagram>
</mxfile>